<svg class="navigation__logo__svg" version="1" viewBox="0 0 605 107" xmlns="http://www.w3.org/2000/svg"><path d="M.022 34.586h22.003V106.3H.022zM108.188 9.069C100.852 3.025 90.348 0 76.67 0H38.461v106.299h22.598V70.024h15.462c9.118 0 16.848-1.362 23.192-4.088 6.342-2.725 11.174-6.691 14.496-11.894 3.319-5.204 4.98-11.523 4.98-18.956 0-11.299-3.668-19.97-11.001-26.017Zm-17.47 38.877c-3.519 2.728-8.648 4.088-15.387 4.088H61.059V17.989H75.48c6.639 0 11.719 1.39 15.238 4.163 3.518 2.776 5.279 7.088 5.279 12.935 0 5.848-1.761 10.135-5.279 12.859ZM156.058 0h-22.895v106.299h73.295V86.378h-50.4zm127.661 0H259.04c-7.136 16.751-14.198 33.997-21.186 51.737-6.987 17.743-13.852 35.93-20.59 54.562h24.53c2.576-7.731 5.152-15.41 7.731-23.044h43.114c2.576 7.533 5.152 15.216 7.731 23.044h25.126c-6.541-17.641-13.306-35.358-20.294-53.149-6.987-17.789-14.149-35.506-21.483-53.15Zm-27.652 64.225c4.855-13.775 9.862-27.452 15.016-41.033 2.476 6.642 4.98 13.406 7.507 20.294 2.528 6.89 4.981 13.803 7.36 20.739h-29.883Zm106.708-12.121c-4.362-7.631-21.508-44.273-25.571-52.103h-26.018l39.843 71.961V106.3h22.895V71.962L413.917.001h-25.423c-4.163 7.83-21.259 44.372-25.719 52.103Zm84.238 9h44.601v-19.03h-44.601V19.03h50.25V0h-73.145v106.299h75.97V87.27h-53.075zm144.253 23.415c-4.362-7.085-8.772-14.147-13.232-21.186 6.144-2.676 10.876-6.49 14.199-11.447 3.319-4.955 4.98-10.951 4.98-17.989 0-10.902-3.742-19.276-11.224-25.126C578.504 2.924 567.777 0 553.802 0h-38.804v106.299h22.598V67.645h18.287c7.631 12.688 15.015 25.571 22.151 38.654h26.315c-4.363-7.433-8.723-14.692-13.083-21.78Zm-22.747-38.654c-3.668 2.528-9.02 3.791-16.056 3.791h-14.867V17.989h15.016c7.036 0 12.362 1.29 15.982 3.865 3.616 2.579 5.427 6.593 5.427 12.043-.001 5.452-1.836 9.441-5.502 11.968ZM0 0h22.025v18.15H0z"></path></svg>